<svg xmlns="http://www.w3.org/2000/svg" xmlns:xlink="http://www.w3.org/1999/xlink" width="366" height="56" viewBox="0 0 366 56">
  <defs>
    <clipPath id="clip-Mesa_de_trabajo_1">
      <rect width="366" height="56"/>
    </clipPath>
  </defs>
  <g id="Mesa_de_trabajo_1" data-name="Mesa de trabajo – 1" clip-path="url(#clip-Mesa_de_trabajo_1)">
    <path id="Trazado_33" data-name="Trazado 33" d="M10.44,0A4.923,4.923,0,0,1,6.8-1.26,4.923,4.923,0,0,1,5.544-4.9V-45.864A4.923,4.923,0,0,1,6.8-49.5a4.923,4.923,0,0,1,3.636-1.26H27.72a23.255,23.255,0,0,1,9.072,1.584,12.558,12.558,0,0,1,5.724,4.536,12.369,12.369,0,0,1,1.98,7.056,11.673,11.673,0,0,1-2.664,7.776A13.072,13.072,0,0,1,34.56-25.56v-1.08a13.448,13.448,0,0,1,8.28,4.032,12.023,12.023,0,0,1,2.952,8.424q0,6.768-4.572,10.476T28.512,0ZM14.4-6.984H27.36q4.9,0,7.2-1.908a7,7,0,0,0,2.3-5.724q0-3.888-2.3-5.76t-7.2-1.872H14.4Zm0-22.248H26.136q4.752,0,7.092-1.836a6.489,6.489,0,0,0,2.34-5.436,6.489,6.489,0,0,0-2.34-5.436q-2.34-1.836-7.092-1.836H14.4ZM66.24.72q-5.976,0-9-3.42T54.216-12.744V-46.8a4.587,4.587,0,0,1,1.152-3.384,4.483,4.483,0,0,1,3.312-1.152,4.611,4.611,0,0,1,3.348,1.152A4.5,4.5,0,0,1,63.216-46.8v33.624a7.228,7.228,0,0,0,1.4,4.9,5.059,5.059,0,0,0,4,1.584q.576,0,1.08-.036T70.7-6.84a1.19,1.19,0,0,1,1.368.54,6.919,6.919,0,0,1,.36,2.772,4.765,4.765,0,0,1-.72,2.808A3.273,3.273,0,0,1,69.336.5q-.72.072-1.512.144T66.24.72Zm26.64,0a19.32,19.32,0,0,1-9.5-2.232,15.557,15.557,0,0,1-6.264-6.372A20.263,20.263,0,0,1,74.88-17.64a21.454,21.454,0,0,1,1.26-7.6A16.25,16.25,0,0,1,79.776-31a15.715,15.715,0,0,1,5.688-3.672,20.721,20.721,0,0,1,7.416-1.26,19.32,19.32,0,0,1,9.5,2.232,15.613,15.613,0,0,1,6.264,6.336,20.052,20.052,0,0,1,2.232,9.72,21.754,21.754,0,0,1-1.26,7.632,16.189,16.189,0,0,1-3.636,5.8A15.715,15.715,0,0,1,100.3-.54,20.721,20.721,0,0,1,92.88.72Zm0-6.84a8.463,8.463,0,0,0,4.68-1.3,8.426,8.426,0,0,0,3.132-3.852,15.954,15.954,0,0,0,1.116-6.372q0-5.76-2.448-8.6a8.128,8.128,0,0,0-6.48-2.844,8.645,8.645,0,0,0-4.68,1.26,8.2,8.2,0,0,0-3.132,3.816,15.954,15.954,0,0,0-1.116,6.372q0,5.688,2.448,8.6A8.041,8.041,0,0,0,92.88-6.12ZM134.568.72a19.636,19.636,0,0,1-9.648-2.268,15.613,15.613,0,0,1-6.336-6.444,20.476,20.476,0,0,1-2.232-9.792,21.454,21.454,0,0,1,1.26-7.6,15.543,15.543,0,0,1,3.636-5.688,16.083,16.083,0,0,1,5.76-3.6,21.533,21.533,0,0,1,7.56-1.26,22.709,22.709,0,0,1,5.148.648,17.418,17.418,0,0,1,5.22,2.16,3.439,3.439,0,0,1,1.512,1.728,3.738,3.738,0,0,1,.144,2.052,3.767,3.767,0,0,1-.9,1.8A2.912,2.912,0,0,1,144-26.6a3.468,3.468,0,0,1-2.232-.468,13.665,13.665,0,0,0-3.24-1.4,11.646,11.646,0,0,0-3.168-.468,10.717,10.717,0,0,0-4.176.756,8.447,8.447,0,0,0-3.06,2.16,9.247,9.247,0,0,0-1.908,3.492,16.3,16.3,0,0,0-.648,4.824q0,5.328,2.556,8.388a8.9,8.9,0,0,0,7.236,3.06,12.14,12.14,0,0,0,3.132-.432,14.009,14.009,0,0,0,3.276-1.368,3.209,3.209,0,0,1,2.2-.432,2.913,2.913,0,0,1,1.62.972,3.421,3.421,0,0,1,.792,1.8,4.022,4.022,0,0,1-.252,2.052,3.368,3.368,0,0,1-1.476,1.656,17.78,17.78,0,0,1-5.04,2.088A21.354,21.354,0,0,1,134.568.72ZM156.744.576a4.4,4.4,0,0,1-3.312-1.188,4.716,4.716,0,0,1-1.152-3.42V-46.8a4.587,4.587,0,0,1,1.152-3.384,4.483,4.483,0,0,1,3.312-1.152,4.611,4.611,0,0,1,3.348,1.152A4.5,4.5,0,0,1,161.28-46.8v26.568h.144L173.3-32.76a22.78,22.78,0,0,1,2.52-2.232,4.9,4.9,0,0,1,2.952-.792,3.854,3.854,0,0,1,2.844.972,3.19,3.19,0,0,1,.972,2.34,4.029,4.029,0,0,1-1.3,2.736L168.768-16.488v-3.744L182.52-5.4a3.625,3.625,0,0,1,1.188,2.772,3.206,3.206,0,0,1-1.188,2.3,4.129,4.129,0,0,1-2.736.9,5.7,5.7,0,0,1-3.2-.792,14.9,14.9,0,0,1-2.628-2.376L161.424-15.7h-.144V-4.032Q161.28.576,156.744.576Zm46.44.144a35.6,35.6,0,0,1-6.552-.648A19.386,19.386,0,0,1,190.44-2.16a4.173,4.173,0,0,1-1.62-1.692,3.519,3.519,0,0,1-.36-1.944,3.076,3.076,0,0,1,.72-1.692,2.82,2.82,0,0,1,1.584-.936,3.17,3.17,0,0,1,2.124.36,24.832,24.832,0,0,0,5.4,1.908,23.663,23.663,0,0,0,4.968.54A9.012,9.012,0,0,0,208.4-6.8,3.659,3.659,0,0,0,210.1-9.936a3.1,3.1,0,0,0-1.116-2.556,7.66,7.66,0,0,0-3.348-1.332l-7.2-1.368a12.521,12.521,0,0,1-6.8-3.276,8.57,8.57,0,0,1-2.34-6.228,9.617,9.617,0,0,1,1.908-5.976,12.171,12.171,0,0,1,5.292-3.888,20.624,20.624,0,0,1,7.776-1.368,24.736,24.736,0,0,1,5.94.684,21.73,21.73,0,0,1,5.364,2.124,3.1,3.1,0,0,1,1.476,1.512,3.074,3.074,0,0,1,.18,1.908,3.924,3.924,0,0,1-.864,1.728,2.731,2.731,0,0,1-1.62.936,3.623,3.623,0,0,1-2.2-.4,19.581,19.581,0,0,0-4.284-1.656,16.452,16.452,0,0,0-3.924-.5,8.956,8.956,0,0,0-5.22,1.224,3.812,3.812,0,0,0-1.692,3.24,3.419,3.419,0,0,0,1.008,2.52,5.633,5.633,0,0,0,3.1,1.368l7.2,1.368A13.63,13.63,0,0,1,215.82-16.7a8.161,8.161,0,0,1,2.412,6.192,9.636,9.636,0,0,1-4.1,8.244Q210.024.72,203.184.72ZM229.9.576a4.4,4.4,0,0,1-3.312-1.188,4.716,4.716,0,0,1-1.152-3.42V-46.8a4.587,4.587,0,0,1,1.152-3.384,4.483,4.483,0,0,1,3.312-1.152,4.611,4.611,0,0,1,3.348,1.152,4.5,4.5,0,0,1,1.188,3.384v18.648h-1.008a11.745,11.745,0,0,1,4.932-5.8,14.637,14.637,0,0,1,7.6-1.98,13.8,13.8,0,0,1,6.984,1.584,9.756,9.756,0,0,1,4.1,4.788,20.739,20.739,0,0,1,1.368,8.1V-4.032a4.717,4.717,0,0,1-1.152,3.42A4.4,4.4,0,0,1,253.944.576,4.527,4.527,0,0,1,250.6-.612a4.629,4.629,0,0,1-1.188-3.42V-21.024q0-4.1-1.548-5.976a5.857,5.857,0,0,0-4.788-1.872,8.242,8.242,0,0,0-6.3,2.484,9.216,9.216,0,0,0-2.34,6.588V-4.032Q234.432.576,229.9.576ZM279.144.72a15.163,15.163,0,0,1-6.8-1.476,11.775,11.775,0,0,1-4.68-4,9.972,9.972,0,0,1-1.692-5.688,8.932,8.932,0,0,1,2.016-6.156q2.016-2.268,6.552-3.276A58.418,58.418,0,0,1,286.7-20.88h3.6V-15.7h-3.528a46.553,46.553,0,0,0-7.128.432,7.25,7.25,0,0,0-3.78,1.476,3.8,3.8,0,0,0-1.116,2.916,5.027,5.027,0,0,0,1.656,3.888,6.582,6.582,0,0,0,4.608,1.512,7.947,7.947,0,0,0,4.212-1.116,8.126,8.126,0,0,0,2.916-3.06,9.038,9.038,0,0,0,1.08-4.464v-8.28q0-3.6-1.584-5.184t-5.328-1.584a22.076,22.076,0,0,0-4.5.5,23.974,23.974,0,0,0-5.076,1.728,3.469,3.469,0,0,1-2.412.36,2.716,2.716,0,0,1-1.62-1.188,3.6,3.6,0,0,1-.576-1.98,4.351,4.351,0,0,1,.576-2.124,3.476,3.476,0,0,1,1.944-1.548,32.488,32.488,0,0,1,6.372-1.944,30.383,30.383,0,0,1,5.58-.576,19.984,19.984,0,0,1,8.532,1.584,10.54,10.54,0,0,1,5,4.788,17.924,17.924,0,0,1,1.656,8.244v17.28a4.913,4.913,0,0,1-1.08,3.42,3.971,3.971,0,0,1-3.1,1.188,4.088,4.088,0,0,1-3.132-1.188,4.811,4.811,0,0,1-1.116-3.42V-7.488h.576a9.943,9.943,0,0,1-1.98,4.356,9.913,9.913,0,0,1-3.708,2.844A12.3,12.3,0,0,1,279.144.72Zm32.4-.144a4.629,4.629,0,0,1-3.42-1.188,4.629,4.629,0,0,1-1.188-3.42V-31.248a4.587,4.587,0,0,1,1.152-3.384,4.381,4.381,0,0,1,3.24-1.152,4.381,4.381,0,0,1,3.24,1.152,4.587,4.587,0,0,1,1.152,3.384v4.536H315a11,11,0,0,1,3.96-6.552,14.953,14.953,0,0,1,7.848-2.664,2.849,2.849,0,0,1,2.412.756,4.263,4.263,0,0,1,1.044,2.772,3.791,3.791,0,0,1-.828,2.916,4.331,4.331,0,0,1-2.916,1.332l-1.584.144a10.405,10.405,0,0,0-6.624,2.7,8.7,8.7,0,0,0-2.232,6.372v14.9a4.716,4.716,0,0,1-1.152,3.42A4.5,4.5,0,0,1,311.544.576ZM351.936.72a22.169,22.169,0,0,1-10.3-2.232,15.867,15.867,0,0,1-6.66-6.336,19.3,19.3,0,0,1-2.34-9.72,19.482,19.482,0,0,1,2.268-9.576,16.666,16.666,0,0,1,6.264-6.444,17.686,17.686,0,0,1,9.108-2.34,17.618,17.618,0,0,1,6.732,1.224,14.153,14.153,0,0,1,5.112,3.528,15.469,15.469,0,0,1,3.24,5.58,22.808,22.808,0,0,1,1.116,7.38,2.336,2.336,0,0,1-.9,1.98,4.153,4.153,0,0,1-2.556.684H339.912v-5.184h20.232l-1.152,1.08a13.9,13.9,0,0,0-.972-5.544,7.52,7.52,0,0,0-2.808-3.42,8.251,8.251,0,0,0-4.572-1.188,9.126,9.126,0,0,0-5.148,1.4,8.854,8.854,0,0,0-3.24,3.96,15.132,15.132,0,0,0-1.116,6.084v.5q0,5.9,2.772,8.82T352.08-6.12a21.691,21.691,0,0,0,4.212-.468,15.34,15.34,0,0,0,4.428-1.62,4.633,4.633,0,0,1,2.664-.756,2.792,2.792,0,0,1,1.836.828,3.108,3.108,0,0,1,.828,1.764,3.584,3.584,0,0,1-.4,2.124,4.712,4.712,0,0,1-1.836,1.872,18.7,18.7,0,0,1-5.8,2.34A27.168,27.168,0,0,1,351.936.72Z" transform="translate(-3 53)" fill="#00b2c1"/>
  </g>
</svg>
