<svg xmlns="http://www.w3.org/2000/svg" xmlns:xlink="http://www.w3.org/1999/xlink" width="27" height="30" viewBox="0 0 27 30">
  <defs>
    <clipPath id="clip-calendar">
      <rect width="27" height="30"/>
    </clipPath>
  </defs>
  <g id="calendar" clip-path="url(#clip-calendar)">
    <path id="Icon_awesome-calendar-alt" data-name="Icon awesome-calendar-alt" d="M0,27.213a2.816,2.816,0,0,0,2.815,2.815H23.46a2.816,2.816,0,0,0,2.815-2.815V11.261H0Zm18.768-11.5a.706.706,0,0,1,.7-.7h2.346a.706.706,0,0,1,.7.7v2.346a.706.706,0,0,1-.7.7H19.472a.706.706,0,0,1-.7-.7Zm0,7.507a.706.706,0,0,1,.7-.7h2.346a.706.706,0,0,1,.7.7v2.346a.706.706,0,0,1-.7.7H19.472a.706.706,0,0,1-.7-.7Zm-7.507-7.507a.706.706,0,0,1,.7-.7h2.346a.706.706,0,0,1,.7.7v2.346a.706.706,0,0,1-.7.7H11.965a.706.706,0,0,1-.7-.7Zm0,7.507a.706.706,0,0,1,.7-.7h2.346a.706.706,0,0,1,.7.7v2.346a.706.706,0,0,1-.7.7H11.965a.706.706,0,0,1-.7-.7ZM3.754,15.718a.706.706,0,0,1,.7-.7H6.8a.706.706,0,0,1,.7.7v2.346a.706.706,0,0,1-.7.7H4.457a.706.706,0,0,1-.7-.7Zm0,7.507a.706.706,0,0,1,.7-.7H6.8a.706.706,0,0,1,.7.7v2.346a.706.706,0,0,1-.7.7H4.457a.706.706,0,0,1-.7-.7ZM23.46,3.754H20.645V.938A.941.941,0,0,0,19.706,0H17.83a.941.941,0,0,0-.938.938V3.754H9.384V.938A.941.941,0,0,0,8.446,0H6.569A.941.941,0,0,0,5.63.938V3.754H2.815A2.816,2.816,0,0,0,0,6.569V9.384H26.275V6.569A2.816,2.816,0,0,0,23.46,3.754Z"/>
  </g>
</svg>
