<svg xmlns="http://www.w3.org/2000/svg" xmlns:xlink="http://www.w3.org/1999/xlink" width="27" height="27" viewBox="0 0 27 27">
  <defs>
    <clipPath id="clip-coins">
      <rect width="27" height="27"/>
    </clipPath>
  </defs>
  <g id="coins" clip-path="url(#clip-coins)">
    <path id="Icon_awesome-coins" data-name="Icon awesome-coins" d="M0,20.8v2.191c0,1.812,4.413,3.284,9.853,3.284s9.853-1.473,9.853-3.284V20.8c-2.119,1.493-5.994,2.191-9.853,2.191S2.119,22.293,0,20.8ZM16.422,6.569c5.44,0,9.853-1.473,9.853-3.284S21.862,0,16.422,0,6.569,1.473,6.569,3.284,10.982,6.569,16.422,6.569ZM0,15.416v2.648c0,1.812,4.413,3.284,9.853,3.284s9.853-1.473,9.853-3.284V15.416c-2.119,1.745-6,2.648-9.853,2.648S2.119,17.161,0,15.416Zm21.349.565c2.941-.57,4.927-1.627,4.927-2.843V10.946a12.6,12.6,0,0,1-4.927,1.77Zm-11.5-7.77C4.413,8.211,0,10.048,0,12.316s4.413,4.105,9.853,4.105,9.853-1.837,9.853-4.105S15.293,8.211,9.853,8.211ZM21.107,11.1c3.079-.554,5.168-1.642,5.168-2.889V6.02C24.453,7.308,21.323,8,18.028,8.165A5.747,5.747,0,0,1,21.107,11.1Z"/>
  </g>
</svg>
