<svg xmlns="http://www.w3.org/2000/svg" xmlns:xlink="http://www.w3.org/1999/xlink" width="444" height="99" viewBox="0 0 444 99">
  <defs>
    <clipPath id="clip-Evmos-logo">
      <rect width="444" height="99"/>
    </clipPath>
  </defs>
  <g id="Evmos-logo" clip-path="url(#clip-Evmos-logo)">
    <g id="evmos" transform="translate(-33 -32)">
      <path id="Trazado_24" data-name="Trazado 24" d="M94.462,35.281C67.154,45.806,64.653,72.762,56.823,85.351,48.9,98.09,30.749,105.118,33.231,111.61s20.654-.481,35.032,3.661c14.207,4.093,34.029,22.446,61.336,11.92a49,49,0,0,0,28.616-29.469,2.274,2.274,0,0,0-1.911-3.042A2.24,2.24,0,0,0,154.09,95.9a38.764,38.764,0,0,1-69.736-.684c-.44-.927-.858-1.869-1.229-2.843s-.69-1.955-.981-2.94c8.208-3.841,17.679-7.91,28.416-12.048,10.527-4.058,20.109-7.349,28.639-9.982q8.656-2.67,15.837-4.471l1.025-.258a1.473,1.473,0,0,1,1.731.905l0,.013c.157.414.293.829.44,1.245a49.9,49.9,0,0,1,2.119,8.111,1.755,1.755,0,0,0,2.56,1.264c3.921-2.113,7.507-4.175,10.711-6.158,11.941-7.384,18.561-13.646,17.2-17.195s-10.448-3.755-24.243-1.221c-4.384.806-9.244,1.888-14.482,3.229q-1.359.347-2.75.719c-4.408,1.174-9.057,2.518-13.9,4.023-9,2.8-18.662,6.154-28.634,10-9.328,3.6-18.17,7.325-26.278,11.041a39.007,39.007,0,0,1,24.924-36.663,38.542,38.542,0,0,1,28.045.087,2.237,2.237,0,0,0,2.463-.578,2.281,2.281,0,0,0-.609-3.545A48.736,48.736,0,0,0,94.462,35.281Z"/>
      <path id="Trazado_25" data-name="Trazado 25" d="M253.752,101.476H226.387v-16.7h25.892a1.314,1.314,0,0,0,1.381-1.4V74.891a1.314,1.314,0,0,0-1.381-1.4H226.387V58.754H253.66a1.314,1.314,0,0,0,1.381-1.4V48.866a1.314,1.314,0,0,0-1.381-1.4H215.155a1.314,1.314,0,0,0-1.381,1.4v62.5a1.314,1.314,0,0,0,1.381,1.4h38.6a1.313,1.313,0,0,0,1.381-1.4v-8.489A1.313,1.313,0,0,0,253.752,101.476Z"/>
      <path id="Trazado_26" data-name="Trazado 26" d="M294.242,68.175,283.287,98.4,272.239,68.175a1.686,1.686,0,0,0-1.657-1.119H261.1c-1.013,0-1.473.56-1.105,1.586l16.94,43a1.686,1.686,0,0,0,1.657,1.119h9.391a1.685,1.685,0,0,0,1.657-1.119l16.848-43c.368-1.026-.092-1.586-1.105-1.586H295.9A1.687,1.687,0,0,0,294.242,68.175Z"/>
      <path id="Trazado_27" data-name="Trazado 27" d="M368.982,66.03a18.342,18.342,0,0,0-15.928,8.489,15.16,15.16,0,0,0-13.9-8.489c-6.536,0-11.324,3.638-14.27,8.489v-.093l-.368-5.97a1.364,1.364,0,0,0-1.381-1.4h-9.022a1.313,1.313,0,0,0-1.381,1.4v42.909a1.313,1.313,0,0,0,1.381,1.4h9.39a1.313,1.313,0,0,0,1.381-1.4v-25c0-2.145,3.131-8.955,9.943-8.955,4.419,0,8.47,2.612,8.47,10.168v23.787a1.314,1.314,0,0,0,1.381,1.4h9.391a1.313,1.313,0,0,0,1.381-1.4V86.178c0-3.265,3.13-8.768,9.943-8.768,4.327,0,8.378,2.612,8.378,10.168v23.787a1.313,1.313,0,0,0,1.381,1.4h9.391a1.314,1.314,0,0,0,1.381-1.4V85.339C385.922,73.119,378.833,66.03,368.982,66.03Z"/>
      <path id="Trazado_28" data-name="Trazado 28" d="M414.648,113.976c12.981,0,23.385-10.541,23.385-23.973s-10.4-23.973-23.385-23.973S391.264,76.57,391.264,90,401.667,113.976,414.648,113.976Zm0-11.381c-6.536,0-11.692-5.223-11.692-12.592s5.156-12.593,11.692-12.593c6.445,0,11.692,5.224,11.692,12.593S421.093,102.6,414.648,102.6Z"/>
      <path id="Trazado_29" data-name="Trazado 29" d="M455.03,79.835c0-2.332,2.117-3.918,4.971-3.918,3.223,0,5.34,1.213,8.839,3.545.828.653,1.473.84,2.025.093l3.5-4.664a1.452,1.452,0,0,0,.093-1.959,20.381,20.381,0,0,0-15.467-6.9c-8.1,0-15.652,5.13-15.652,13.9,0,15.391,21.82,12.593,21.82,19.869,0,2.892-2.854,3.825-5.8,3.825-3.591,0-7.55-1.773-11.232-4.2-.829-.653-1.473-.84-2.026-.093l-3.59,5.13a1.432,1.432,0,0,0,0,1.866,23,23,0,0,0,17.216,7.649c8.286,0,17.216-5.131,17.216-13.992C476.941,83.193,455.03,87.3,455.03,79.835Z"/>
    </g>
  </g>
</svg>
