<svg xmlns="http://www.w3.org/2000/svg" xmlns:xlink="http://www.w3.org/1999/xlink" width="196" height="45" viewBox="0 0 196 45">
  <defs>
    <clipPath id="clip-myshare-logo">
      <rect width="196" height="45"/>
    </clipPath>
  </defs>
  <g id="myshare-logo" clip-path="url(#clip-myshare-logo)">
    <path id="Trazado_32" data-name="Trazado 32" d="M-93.321.392a2.748,2.748,0,0,1-2.107-.784,3.027,3.027,0,0,1-.735-2.156V-32a2.9,2.9,0,0,1,.784-2.18,2.968,2.968,0,0,1,2.156-.76,3.5,3.5,0,0,1,1.936.465,4.135,4.135,0,0,1,1.3,1.592l12.1,22.393h-1.568l12.1-22.393a4.256,4.256,0,0,1,1.274-1.592,3.373,3.373,0,0,1,1.911-.465,2.8,2.8,0,0,1,2.107.76A3.01,3.01,0,0,1-61.323-32V-2.548a3.092,3.092,0,0,1-.711,2.156,2.733,2.733,0,0,1-2.131.784,2.748,2.748,0,0,1-2.107-.784,3.027,3.027,0,0,1-.735-2.156V-25.235h1.078L-76.219-6.468a3.989,3.989,0,0,1-1.029,1.225,2.453,2.453,0,0,1-1.47.392,2.569,2.569,0,0,1-1.519-.417,3.6,3.6,0,0,1-1.029-1.2L-91.655-25.284h1.176V-2.548a3.092,3.092,0,0,1-.711,2.156A2.733,2.733,0,0,1-93.321.392Zm45.08,8.82A2.688,2.688,0,0,1-50,8.648a2.236,2.236,0,0,1-.808-1.494,3.707,3.707,0,0,1,.319-1.96l3.332-7.4V.343L-56.08-20.286a3.736,3.736,0,0,1-.294-2.009,2.228,2.228,0,0,1,.907-1.495,3.427,3.427,0,0,1,2.083-.563,2.947,2.947,0,0,1,1.813.515A4.29,4.29,0,0,1-50.347-21.9L-43.732-5.39H-45.2l6.762-16.562a4.046,4.046,0,0,1,1.274-1.886,3.356,3.356,0,0,1,1.96-.515,2.5,2.5,0,0,1,1.715.563,2.41,2.41,0,0,1,.784,1.47,3.448,3.448,0,0,1-.343,1.985L-44.957,6.86a4.432,4.432,0,0,1-1.372,1.862A3.385,3.385,0,0,1-48.241,9.212ZM-16.048.49A29.468,29.468,0,0,1-20.36.172a22.429,22.429,0,0,1-4.067-.98,15.881,15.881,0,0,1-3.43-1.642,3.163,3.163,0,0,1-1.225-1.421A3.049,3.049,0,0,1-29.3-5.512a2.824,2.824,0,0,1,.637-1.421,2.171,2.171,0,0,1,1.3-.76,2.388,2.388,0,0,1,1.715.441A16.741,16.741,0,0,0-21.095-5.39a21.15,21.15,0,0,0,5.047.588q3.871,0,5.635-1.3A3.992,3.992,0,0,0-8.649-9.457,3.237,3.237,0,0,0-9.9-12.152a10.837,10.837,0,0,0-4.288-1.617l-5.39-1.127A13.325,13.325,0,0,1-26.509-18.2a8.413,8.413,0,0,1-2.278-6.15,9.614,9.614,0,0,1,.98-4.361,9.993,9.993,0,0,1,2.768-3.381,12.819,12.819,0,0,1,4.263-2.181,18.561,18.561,0,0,1,5.464-.759,20.781,20.781,0,0,1,5.586.735,16.172,16.172,0,0,1,4.753,2.156A2.642,2.642,0,0,1-3.92-30.821,2.951,2.951,0,0,1-3.8-29.278a2.455,2.455,0,0,1-.686,1.3,2.225,2.225,0,0,1-1.347.637,3.03,3.03,0,0,1-1.838-.49,13.949,13.949,0,0,0-3.675-1.47,17.408,17.408,0,0,0-4.018-.441,10.558,10.558,0,0,0-3.871.637,5.5,5.5,0,0,0-2.474,1.788,4.426,4.426,0,0,0-.858,2.72,3.6,3.6,0,0,0,1.176,2.817,8.8,8.8,0,0,0,4.018,1.642l5.341,1.127A15.119,15.119,0,0,1-4.8-15.778,7.637,7.637,0,0,1-2.426-9.9a9.4,9.4,0,0,1-.956,4.263A9.416,9.416,0,0,1-6.125-2.352,12.986,12.986,0,0,1-10.413-.245,19.962,19.962,0,0,1-16.048.49ZM5.414.392A3,3,0,0,1,3.16-.417a3.21,3.21,0,0,1-.784-2.328V-31.85a3.122,3.122,0,0,1,.784-2.3,3.051,3.051,0,0,1,2.254-.784,3.138,3.138,0,0,1,2.279.784,3.065,3.065,0,0,1,.808,2.3v12.691H7.815A7.993,7.993,0,0,1,11.172-23.1a9.961,9.961,0,0,1,5.169-1.347,9.391,9.391,0,0,1,4.753,1.078,6.639,6.639,0,0,1,2.793,3.258,14.114,14.114,0,0,1,.931,5.512V-2.744a3.21,3.21,0,0,1-.784,2.328A3,3,0,0,1,21.78.392,3.081,3.081,0,0,1,19.5-.417a3.151,3.151,0,0,1-.808-2.328V-14.308a6.353,6.353,0,0,0-1.054-4.067,3.986,3.986,0,0,0-3.258-1.274,5.609,5.609,0,0,0-4.288,1.691A6.272,6.272,0,0,0,8.5-13.475V-2.744Q8.5.392,5.414.392ZM38.93.49a10.319,10.319,0,0,1-4.63-1,8.014,8.014,0,0,1-3.185-2.719,6.786,6.786,0,0,1-1.151-3.871,6.079,6.079,0,0,1,1.372-4.19,8.19,8.19,0,0,1,4.459-2.229,39.757,39.757,0,0,1,8.281-.686h2.45v3.528h-2.4a31.682,31.682,0,0,0-4.851.294,4.934,4.934,0,0,0-2.573,1A2.585,2.585,0,0,0,35.941-7.4a3.421,3.421,0,0,0,1.127,2.646A4.48,4.48,0,0,0,40.2-3.724a5.408,5.408,0,0,0,2.867-.76,5.53,5.53,0,0,0,1.985-2.082A6.151,6.151,0,0,0,45.79-9.6v-5.635a4.851,4.851,0,0,0-1.078-3.528,5.012,5.012,0,0,0-3.626-1.078,15.024,15.024,0,0,0-3.062.343,16.316,16.316,0,0,0-3.454,1.176,2.361,2.361,0,0,1-1.642.245,1.848,1.848,0,0,1-1.1-.809,2.449,2.449,0,0,1-.392-1.347,2.961,2.961,0,0,1,.392-1.445,2.366,2.366,0,0,1,1.323-1.054,22.11,22.11,0,0,1,4.337-1.323,20.677,20.677,0,0,1,3.8-.392,13.6,13.6,0,0,1,5.806,1.078,7.173,7.173,0,0,1,3.406,3.258A12.2,12.2,0,0,1,51.621-14.5v11.76a3.344,3.344,0,0,1-.735,2.328,2.7,2.7,0,0,1-2.107.809,2.782,2.782,0,0,1-2.131-.809,3.274,3.274,0,0,1-.76-2.328V-5.1h.392a6.766,6.766,0,0,1-1.347,2.965A6.746,6.746,0,0,1,42.41-.2,8.371,8.371,0,0,1,38.93.49Zm22.05-.1a3.151,3.151,0,0,1-2.327-.809,3.151,3.151,0,0,1-.808-2.328V-21.266a3.122,3.122,0,0,1,.784-2.3,2.981,2.981,0,0,1,2.2-.784,2.981,2.981,0,0,1,2.2.784,3.122,3.122,0,0,1,.784,2.3v3.087h-.49a7.484,7.484,0,0,1,2.7-4.459,10.176,10.176,0,0,1,5.341-1.813,1.939,1.939,0,0,1,1.642.514,2.9,2.9,0,0,1,.71,1.887,2.58,2.58,0,0,1-.563,1.984,2.948,2.948,0,0,1-1.984.906l-1.078.1a7.081,7.081,0,0,0-4.508,1.838,5.919,5.919,0,0,0-1.519,4.336V-2.744a3.21,3.21,0,0,1-.784,2.328A3.065,3.065,0,0,1,60.98.392Zm27.489.1a15.088,15.088,0,0,1-7.007-1.519A10.8,10.8,0,0,1,76.93-5.341a13.135,13.135,0,0,1-1.592-6.615,13.259,13.259,0,0,1,1.544-6.517,11.342,11.342,0,0,1,4.263-4.386,12.036,12.036,0,0,1,6.2-1.592,11.99,11.99,0,0,1,4.582.833,9.632,9.632,0,0,1,3.479,2.4,10.527,10.527,0,0,1,2.205,3.8,15.522,15.522,0,0,1,.759,5.023,1.59,1.59,0,0,1-.612,1.347,2.826,2.826,0,0,1-1.74.465H80.286v-3.528H94.056l-.784.735a9.463,9.463,0,0,0-.661-3.773A5.118,5.118,0,0,0,90.7-19.478a5.615,5.615,0,0,0-3.112-.808,6.211,6.211,0,0,0-3.5.955,6.026,6.026,0,0,0-2.205,2.695,10.3,10.3,0,0,0-.759,4.141v.343q0,4.018,1.887,6a7.319,7.319,0,0,0,5.562,1.984,14.762,14.762,0,0,0,2.867-.319,10.44,10.44,0,0,0,3.013-1.1A3.153,3.153,0,0,1,96.26-6.1a1.9,1.9,0,0,1,1.25.564,2.115,2.115,0,0,1,.563,1.2,2.439,2.439,0,0,1-.27,1.446,3.207,3.207,0,0,1-1.249,1.274A12.729,12.729,0,0,1,92.61-.025,18.49,18.49,0,0,1,88.469.49Z" transform="translate(97 35)" fill="#00b2c1"/>
  </g>
</svg>
